<svg xmlns="http://www.w3.org/2000/svg" xmlns:xlink="http://www.w3.org/1999/xlink" width="1080" zoomAndPan="magnify" viewBox="0 0 810 1439.999935" height="1920" preserveAspectRatio="xMidYMid meet" version="1.2"><defs><clipPath id="213020c461"><path d="M 380 700 L 453.777344 700 L 453.777344 754.511719 L 380 754.511719 Z M 380 700 "/></clipPath><clipPath id="662e9d0ca1"><path d="M 356.277344 685.53125 L 429.785156 685.53125 L 429.785156 739.457031 L 356.277344 739.457031 Z M 356.277344 685.53125 "/></clipPath></defs><g id="a64b4a97c3"><rect x="0" width="810" y="0" height="1439.999935" style="fill:#ffffff;fill-opacity:1;stroke:none;"/><rect x="0" width="810" y="0" height="1439.999935" style="fill:#ffffff;fill-opacity:1;stroke:none;"/><g clip-rule="nonzero" clip-path="url(#213020c461)"><path style=" stroke:none;fill-rule:nonzero;fill:#000000;fill-opacity:1;" d="M 425.75 740.234375 C 425.777344 740.222656 425.800781 740.214844 425.824219 740.203125 Z M 425.972656 740.117188 L 425.839844 740.195312 C 425.886719 740.175781 425.929688 740.148438 425.972656 740.117188 Z M 382.039062 740.167969 L 380.382812 739.175781 L 382.039062 738.1875 L 387.648438 734.851562 L 393.257812 731.519531 L 404.492188 724.882812 L 406.011719 723.984375 L 406 725.78125 L 405.941406 733.429688 C 406.445312 733.421875 406.949219 733.40625 407.453125 733.378906 C 408.269531 733.335938 409.089844 733.265625 409.902344 733.167969 C 410.71875 733.070312 411.527344 732.945312 412.335938 732.796875 C 412.921875 732.6875 413.503906 732.566406 414.082031 732.429688 L 414.746094 732.265625 C 415.609375 732.050781 416.464844 731.804688 417.3125 731.527344 C 417.523438 731.460938 417.734375 731.390625 417.945312 731.316406 C 418.15625 731.246094 418.363281 731.167969 418.574219 731.09375 C 418.785156 731.019531 418.992188 730.941406 419.199219 730.859375 C 419.40625 730.777344 419.617188 730.703125 419.824219 730.617188 C 420.234375 730.445312 420.648438 730.277344 421.058594 730.09375 C 421.464844 729.90625 421.871094 729.726562 422.277344 729.535156 L 423.472656 728.929688 C 423.519531 728.90625 423.574219 728.878906 423.621094 728.851562 L 424.066406 728.605469 L 424.652344 728.28125 L 424.800781 728.199219 L 424.949219 728.113281 L 425.238281 727.941406 C 425.429688 727.824219 425.621094 727.714844 425.816406 727.597656 C 426.195312 727.355469 426.578125 727.121094 426.949219 726.871094 C 427.140625 726.746094 427.324219 726.617188 427.507812 726.488281 L 428.0625 726.105469 C 428.246094 725.972656 428.425781 725.835938 428.609375 725.703125 L 428.882812 725.503906 L 429.019531 725.402344 L 429.152344 725.300781 C 430.585938 724.203125 431.953125 723.003906 433.238281 721.722656 L 433.363281 721.601562 L 433.71875 721.234375 C 433.875 721.070312 434.035156 720.90625 434.191406 720.742188 L 434.652344 720.238281 C 434.804688 720.070312 434.960938 719.902344 435.105469 719.726562 C 435.402344 719.378906 435.707031 719.039062 435.992188 718.679688 L 436.425781 718.148438 L 436.84375 717.605469 C 437.40625 716.882812 437.929688 716.128906 438.445312 715.371094 C 438.578125 715.179688 438.695312 714.984375 438.820312 714.792969 C 438.945312 714.597656 439.074219 714.40625 439.191406 714.210938 L 439.550781 713.617188 C 439.667969 713.421875 439.789062 713.226562 439.902344 713.023438 C 440.367188 712.226562 440.800781 711.410156 441.210938 710.582031 C 441.621094 709.75 442.003906 708.90625 442.363281 708.050781 C 442.542969 707.621094 442.714844 707.191406 442.875 706.753906 L 443.117188 706.101562 C 443.199219 705.882812 443.273438 705.664062 443.351562 705.441406 C 443.652344 704.5625 443.925781 703.667969 444.175781 702.769531 L 444.191406 702.703125 L 444.195312 702.703125 C 444.386719 702.011719 444.566406 701.316406 444.722656 700.613281 C 444.605469 701.347656 444.460938 702.078125 444.304688 702.800781 L 444.289062 702.863281 L 444.285156 702.863281 C 444.089844 703.757812 443.863281 704.648438 443.609375 705.53125 C 443.351562 706.433594 443.066406 707.328125 442.742188 708.210938 C 442.101562 709.976562 441.34375 711.699219 440.476562 713.359375 C 438.738281 716.6875 436.550781 719.773438 434 722.511719 C 432.722656 723.875 431.355469 725.152344 429.914062 726.332031 L 429.777344 726.445312 L 429.640625 726.550781 L 429.367188 726.769531 C 429.183594 726.910156 429 727.058594 428.816406 727.199219 L 428.253906 727.613281 C 428.066406 727.753906 427.878906 727.890625 427.6875 728.023438 C 427.308594 728.296875 426.917969 728.550781 426.53125 728.8125 C 426.339844 728.9375 426.140625 729.0625 425.941406 729.1875 L 425.648438 729.375 L 425.578125 729.417969 L 425.5 729.460938 L 425.351562 729.550781 L 424.75 729.90625 L 424.453125 730.082031 L 424.300781 730.171875 C 424.25 730.203125 424.203125 730.226562 424.152344 730.257812 L 422.921875 730.921875 C 422.71875 731.027344 422.507812 731.128906 422.300781 731.230469 L 421.675781 731.539062 C 421.253906 731.738281 420.828125 731.921875 420.40625 732.113281 C 420.191406 732.203125 419.976562 732.289062 419.765625 732.378906 C 419.550781 732.46875 419.335938 732.554688 419.117188 732.640625 C 418.902344 732.722656 418.683594 732.808594 418.46875 732.890625 C 418.25 732.96875 418.03125 733.046875 417.8125 733.125 C 417.207031 733.335938 416.59375 733.535156 415.976562 733.71875 L 415.980469 733.734375 L 415.164062 733.960938 C 414.335938 734.191406 413.5 734.390625 412.660156 734.5625 C 411.820312 734.738281 410.972656 734.882812 410.125 735 C 409.273438 735.121094 408.421875 735.210938 407.566406 735.273438 C 406.710938 735.339844 405.851562 735.375 404.992188 735.378906 L 404.0625 735.382812 L 404.054688 734.40625 L 404.003906 727.585938 L 394.328125 733.4375 L 388.738281 736.804688 L 384.792969 739.175781 L 394.34375 744.882812 L 399.941406 748.246094 L 403.933594 750.648438 L 403.964844 743.964844 L 403.96875 742.890625 L 404.996094 742.898438 C 406.71875 742.910156 408.441406 742.824219 410.15625 742.652344 C 411.875 742.476562 413.582031 742.207031 415.269531 741.84375 C 416.960938 741.480469 418.628906 741.019531 420.273438 740.476562 C 421.917969 739.933594 423.539062 739.296875 425.121094 738.574219 L 425.113281 738.574219 C 425.121094 738.574219 425.125 738.570312 425.128906 738.570312 L 425.121094 738.570312 L 425.78125 738.261719 L 426.113281 738.105469 L 426.441406 737.945312 C 426.660156 737.835938 426.878906 737.730469 427.09375 737.617188 L 427.742188 737.28125 C 427.960938 737.167969 428.171875 737.046875 428.386719 736.933594 C 428.601562 736.816406 428.816406 736.695312 429.027344 736.574219 L 429.347656 736.394531 C 429.398438 736.363281 429.453125 736.332031 429.507812 736.300781 L 429.664062 736.207031 L 430.292969 735.832031 C 431.125 735.316406 431.953125 734.796875 432.75 734.222656 L 433.355469 733.800781 C 433.554688 733.660156 433.761719 733.523438 433.953125 733.371094 L 435.128906 732.484375 C 436.675781 731.265625 438.160156 729.960938 439.570312 728.578125 C 440.96875 727.179688 442.292969 725.695312 443.539062 724.144531 L 444.453125 722.960938 L 444.566406 722.8125 L 444.675781 722.664062 L 444.894531 722.359375 L 445.328125 721.746094 C 445.46875 721.542969 445.617188 721.339844 445.757812 721.136719 L 446.167969 720.507812 L 446.582031 719.882812 L 446.785156 719.570312 L 446.980469 719.246094 L 447.757812 717.960938 C 448.003906 717.523438 448.242188 717.082031 448.488281 716.644531 C 448.738281 716.207031 448.957031 715.753906 449.183594 715.308594 L 449.527344 714.632812 L 449.609375 714.464844 C 449.640625 714.410156 449.664062 714.351562 449.691406 714.292969 L 449.847656 713.949219 C 450.058594 713.492188 450.273438 713.035156 450.476562 712.574219 L 451.058594 711.175781 C 451.445312 710.242188 451.796875 709.292969 452.125 708.335938 C 452.785156 706.417969 453.332031 704.457031 453.777344 702.46875 C 453.453125 704.484375 453.003906 706.480469 452.4375 708.441406 C 452.296875 708.933594 452.148438 709.417969 451.992188 709.90625 C 451.917969 710.148438 451.835938 710.390625 451.753906 710.632812 L 451.628906 710.996094 L 451.5 711.355469 L 450.976562 712.792969 C 450.789062 713.269531 450.59375 713.738281 450.402344 714.214844 L 450.257812 714.566406 C 450.230469 714.628906 450.210938 714.6875 450.183594 714.746094 L 450.105469 714.917969 L 449.789062 715.617188 C 449.578125 716.082031 449.375 716.550781 449.136719 717.003906 C 448.90625 717.457031 448.683594 717.917969 448.449219 718.371094 L 447.710938 719.710938 L 447.523438 720.046875 L 447.328125 720.371094 L 446.933594 721.027344 L 446.535156 721.683594 C 446.398438 721.898438 446.257812 722.109375 446.117188 722.320312 L 445.699219 722.960938 L 445.488281 723.28125 L 445.269531 723.59375 L 444.382812 724.835938 C 443.164062 726.46875 441.851562 728.027344 440.460938 729.511719 L 439.394531 730.597656 L 439.125 730.867188 L 438.847656 731.128906 L 438.292969 731.648438 L 437.738281 732.171875 C 437.691406 732.214844 437.644531 732.257812 437.597656 732.296875 L 437.453125 732.421875 L 437.167969 732.671875 L 436.59375 733.167969 L 436.304688 733.417969 C 436.257812 733.460938 436.207031 733.5 436.160156 733.542969 L 436.011719 733.660156 L 434.828125 734.609375 C 434.628906 734.773438 434.425781 734.917969 434.222656 735.070312 L 433.613281 735.519531 C 432.804688 736.132812 431.960938 736.691406 431.113281 737.242188 L 430.3125 737.746094 C 430.257812 737.78125 430.207031 737.8125 430.152344 737.84375 L 429.828125 738.039062 C 429.609375 738.171875 429.394531 738.300781 429.175781 738.425781 C 428.957031 738.550781 428.738281 738.679688 428.515625 738.800781 L 427.855469 739.167969 C 427.632812 739.289062 427.40625 739.402344 427.183594 739.523438 L 426.847656 739.695312 L 426.511719 739.863281 L 425.832031 740.199219 C 424.207031 740.980469 422.546875 741.675781 420.847656 742.277344 C 419.15625 742.875 417.425781 743.378906 415.675781 743.785156 C 413.925781 744.191406 412.152344 744.5 410.367188 744.707031 C 408.929688 744.878906 407.480469 744.976562 406.03125 745.015625 L 406.066406 752.570312 L 406.074219 754.492188 L 404.460938 753.53125 L 398.847656 750.203125 L 393.242188 746.863281 L 382.039062 740.167969 "/></g><g clip-rule="nonzero" clip-path="url(#662e9d0ca1)"><path style=" stroke:none;fill-rule:nonzero;fill:#000000;fill-opacity:1;" d="M 384.296875 699.789062 C 384.269531 699.796875 384.246094 699.804688 384.222656 699.816406 Z M 384.074219 699.902344 L 384.207031 699.824219 C 384.160156 699.847656 384.113281 699.871094 384.074219 699.902344 Z M 428.007812 699.855469 L 429.664062 700.847656 L 428.007812 701.832031 L 422.398438 705.171875 L 416.789062 708.5 L 405.554688 715.136719 L 404.035156 716.035156 L 404.046875 714.238281 L 404.105469 706.59375 C 403.601562 706.597656 403.097656 706.613281 402.59375 706.640625 C 401.773438 706.6875 400.957031 706.757812 400.144531 706.851562 C 399.328125 706.949219 398.515625 707.074219 397.710938 707.222656 C 397.125 707.332031 396.542969 707.457031 395.964844 707.589844 L 395.300781 707.757812 C 394.4375 707.972656 393.582031 708.21875 392.734375 708.492188 C 392.523438 708.558594 392.3125 708.628906 392.101562 708.703125 C 391.890625 708.773438 391.683594 708.851562 391.472656 708.925781 C 391.261719 709 391.054688 709.078125 390.847656 709.160156 C 390.640625 709.242188 390.429688 709.320312 390.222656 709.402344 C 389.8125 709.574219 389.398438 709.742188 388.988281 709.925781 C 388.582031 710.113281 388.175781 710.296875 387.769531 710.488281 L 386.574219 711.089844 C 386.527344 711.117188 386.472656 711.144531 386.421875 711.171875 L 386.277344 711.253906 L 385.984375 711.414062 L 385.394531 711.742188 L 385.246094 711.820312 L 385.097656 711.90625 L 384.808594 712.078125 C 384.617188 712.195312 384.425781 712.304688 384.230469 712.425781 C 383.851562 712.664062 383.46875 712.898438 383.097656 713.152344 C 382.90625 713.273438 382.722656 713.40625 382.539062 713.53125 L 381.984375 713.917969 C 381.800781 714.046875 381.617188 714.183594 381.4375 714.316406 L 381.164062 714.515625 L 381.027344 714.617188 L 380.894531 714.71875 C 379.460938 715.816406 378.09375 717.015625 376.804688 718.300781 L 376.683594 718.417969 L 376.328125 718.785156 C 376.171875 718.949219 376.011719 719.113281 375.855469 719.277344 L 375.394531 719.785156 C 375.242188 719.953125 375.085938 720.117188 374.941406 720.292969 C 374.644531 720.640625 374.339844 720.980469 374.054688 721.339844 L 373.621094 721.871094 L 373.203125 722.414062 C 372.640625 723.136719 372.113281 723.890625 371.601562 724.652344 C 371.46875 724.839844 371.351562 725.035156 371.226562 725.230469 C 371.101562 725.421875 370.972656 725.613281 370.855469 725.8125 L 370.496094 726.402344 C 370.375 726.597656 370.257812 726.796875 370.144531 726.996094 C 369.679688 727.792969 369.246094 728.609375 368.835938 729.441406 C 368.425781 730.269531 368.042969 731.113281 367.683594 731.96875 C 367.503906 732.398438 367.332031 732.828125 367.171875 733.265625 L 366.925781 733.917969 C 366.847656 734.136719 366.773438 734.359375 366.695312 734.578125 C 366.394531 735.460938 366.121094 736.351562 365.871094 737.253906 L 365.855469 737.316406 L 365.851562 737.316406 C 365.660156 738.007812 365.480469 738.703125 365.324219 739.40625 C 365.441406 738.671875 365.585938 737.945312 365.742188 737.21875 L 365.757812 737.15625 L 365.761719 737.15625 C 365.957031 736.261719 366.183594 735.371094 366.433594 734.488281 C 366.695312 733.585938 366.980469 732.691406 367.304688 731.8125 C 367.945312 730.046875 368.703125 728.324219 369.570312 726.660156 C 371.308594 723.332031 373.496094 720.246094 376.042969 717.511719 C 377.320312 716.144531 378.691406 714.867188 380.132812 713.6875 L 380.40625 713.46875 L 380.679688 713.253906 C 380.863281 713.109375 381.046875 712.964844 381.230469 712.820312 L 381.792969 712.40625 C 381.980469 712.269531 382.167969 712.128906 382.359375 711.996094 C 382.738281 711.722656 383.128906 711.472656 383.515625 711.210938 C 383.707031 711.082031 383.90625 710.960938 384.105469 710.835938 L 384.398438 710.644531 L 384.46875 710.601562 L 384.542969 710.558594 L 384.695312 710.46875 L 385.292969 710.113281 L 385.59375 709.9375 L 385.746094 709.847656 C 385.796875 709.816406 385.84375 709.792969 385.894531 709.765625 L 387.125 709.097656 C 387.328125 708.992188 387.539062 708.890625 387.746094 708.789062 L 388.371094 708.480469 C 388.789062 708.28125 389.21875 708.097656 389.640625 707.910156 C 389.855469 707.816406 390.070312 707.730469 390.28125 707.640625 C 390.496094 707.550781 390.710938 707.464844 390.929688 707.382812 C 391.144531 707.296875 391.363281 707.210938 391.578125 707.132812 C 391.796875 707.050781 392.015625 706.972656 392.234375 706.894531 C 392.839844 706.683594 393.453125 706.484375 394.070312 706.300781 L 394.066406 706.285156 L 394.882812 706.058594 C 395.710938 705.828125 396.546875 705.628906 397.386719 705.457031 C 398.226562 705.285156 399.070312 705.136719 399.921875 705.019531 C 400.769531 704.898438 401.625 704.808594 402.480469 704.746094 C 403.335938 704.683594 404.195312 704.644531 405.054688 704.640625 L 405.984375 704.636719 L 405.992188 705.613281 L 406.042969 712.4375 L 415.71875 706.582031 L 421.308594 703.214844 L 425.253906 700.847656 L 415.703125 695.136719 L 410.105469 691.777344 L 406.113281 689.371094 L 406.082031 696.054688 L 406.078125 697.128906 L 405.050781 697.121094 C 403.328125 697.109375 401.605469 697.195312 399.886719 697.371094 C 398.171875 697.542969 396.464844 697.8125 394.777344 698.175781 C 393.085938 698.542969 391.417969 699 389.773438 699.542969 C 388.125 700.085938 386.507812 700.722656 384.925781 701.449219 L 384.933594 701.445312 C 384.925781 701.445312 384.921875 701.449219 384.917969 701.453125 L 384.925781 701.449219 L 384.265625 701.757812 L 383.933594 701.914062 L 383.605469 702.078125 C 383.386719 702.1875 383.167969 702.289062 382.953125 702.402344 L 382.300781 702.738281 C 382.085938 702.851562 381.875 702.972656 381.660156 703.089844 C 381.445312 703.203125 381.230469 703.324219 381.019531 703.445312 L 380.699219 703.628906 C 380.648438 703.65625 380.59375 703.6875 380.539062 703.71875 L 380.382812 703.8125 L 379.753906 704.191406 C 378.921875 704.703125 378.09375 705.222656 377.296875 705.796875 L 376.691406 706.21875 C 376.492188 706.359375 376.285156 706.496094 376.09375 706.648438 L 374.914062 707.535156 C 373.371094 708.753906 371.886719 710.058594 370.476562 711.445312 C 369.078125 712.84375 367.753906 714.324219 366.507812 715.875 L 365.59375 717.058594 L 365.480469 717.207031 L 365.371094 717.355469 L 365.152344 717.664062 L 364.71875 718.273438 C 364.578125 718.476562 364.429688 718.679688 364.289062 718.882812 L 363.878906 719.511719 L 363.464844 720.140625 L 363.261719 720.453125 L 363.066406 720.773438 L 362.289062 722.058594 C 362.042969 722.496094 361.800781 722.9375 361.558594 723.375 C 361.308594 723.8125 361.089844 724.265625 360.863281 724.714844 L 360.519531 725.386719 L 360.4375 725.554688 C 360.40625 725.613281 360.382812 725.667969 360.355469 725.726562 L 360.199219 726.070312 C 359.988281 726.527344 359.773438 726.984375 359.570312 727.445312 L 358.988281 728.84375 C 358.601562 729.777344 358.25 730.726562 357.921875 731.683594 C 357.261719 733.601562 356.714844 735.5625 356.269531 737.550781 C 356.589844 735.535156 357.042969 733.542969 357.605469 731.578125 C 357.746094 731.089844 357.898438 730.601562 358.054688 730.113281 C 358.132812 729.871094 358.210938 729.628906 358.292969 729.386719 L 358.417969 729.023438 L 358.546875 728.664062 L 359.070312 727.226562 C 359.257812 726.75 359.453125 726.28125 359.644531 725.808594 L 359.789062 725.453125 C 359.816406 725.394531 359.835938 725.332031 359.863281 725.273438 L 359.941406 725.101562 L 360.257812 724.402344 C 360.46875 723.9375 360.671875 723.46875 360.910156 723.019531 C 361.140625 722.5625 361.363281 722.105469 361.597656 721.652344 L 362.335938 720.308594 L 362.523438 719.976562 L 362.71875 719.648438 L 363.113281 718.992188 L 363.507812 718.339844 C 363.648438 718.125 363.789062 717.910156 363.929688 717.699219 L 364.347656 717.058594 L 364.613281 716.660156 L 364.777344 716.425781 L 365.664062 715.183594 C 366.882812 713.550781 368.195312 711.992188 369.585938 710.507812 L 370.652344 709.421875 L 370.921875 709.152344 L 371.199219 708.890625 L 372.308594 707.851562 C 372.355469 707.804688 372.402344 707.765625 372.449219 707.722656 L 372.59375 707.597656 L 372.878906 707.351562 L 373.453125 706.851562 L 373.742188 706.601562 C 373.789062 706.5625 373.835938 706.519531 373.886719 706.480469 L 374.035156 706.359375 L 375.21875 705.410156 C 375.414062 705.25 375.621094 705.101562 375.824219 704.949219 L 376.433594 704.5 C 377.242188 703.890625 378.085938 703.328125 378.933594 702.78125 L 379.734375 702.273438 C 379.789062 702.238281 379.839844 702.207031 379.894531 702.175781 L 380.21875 701.980469 C 380.4375 701.847656 380.652344 701.71875 380.871094 701.59375 C 381.089844 701.46875 381.308594 701.339844 381.527344 701.21875 L 382.191406 700.851562 C 382.414062 700.730469 382.640625 700.617188 382.863281 700.5 L 383.199219 700.324219 L 383.535156 700.15625 L 384.214844 699.820312 C 385.835938 699.039062 387.5 698.34375 389.195312 697.746094 C 390.890625 697.144531 392.621094 696.640625 394.371094 696.234375 C 396.121094 695.828125 397.894531 695.519531 399.679688 695.3125 C 401.117188 695.140625 402.566406 695.042969 404.015625 695.007812 L 403.980469 687.449219 L 403.972656 685.53125 L 405.585938 686.488281 L 411.199219 689.820312 L 416.804688 693.15625 L 428.007812 699.855469 "/></g></g></svg>